<?xml version="1.0" encoding="utf-8"?>
<!-- Generator: Adobe Illustrator 27.5.0, SVG Export Plug-In . SVG Version: 6.00 Build 0)  -->
<svg version="1.1" xmlns="http://www.w3.org/2000/svg" xmlns:xlink="http://www.w3.org/1999/xlink" x="0px" y="0px"
	 viewBox="0 0 500 500" style="enable-background:new 0 0 500 500;" xml:space="preserve">
<g id="Background">
	<radialGradient id="SVGID_1_" cx="250" cy="250" r="445.4925" gradientUnits="userSpaceOnUse">
		<stop  offset="0.0028" style="stop-color:#FFFFFF"/>
		<stop  offset="0.2557" style="stop-color:#FBFBFB"/>
		<stop  offset="0.5221" style="stop-color:#EEEEEE"/>
		<stop  offset="0.7939" style="stop-color:#D9D9D9"/>
		<stop  offset="1" style="stop-color:#C4C4C4"/>
	</radialGradient>
	<rect style="fill:url(#SVGID_1_);" width="500" height="500"/>
</g>
<g id="Objects">
	<g>
		<g>
			<g>
				<g>
					
						<linearGradient id="SVGID_00000003080081836572183200000012501462941139612831_" gradientUnits="userSpaceOnUse" x1="117.4926" y1="342.8871" x2="231.9099" y2="93.9234">
						<stop  offset="0" style="stop-color:#1277C5"/>
						<stop  offset="1" style="stop-color:#5ED376"/>
					</linearGradient>
					<path style="fill:url(#SVGID_00000003080081836572183200000012501462941139612831_);" d="M199.404,246.773V199.58
						c0-6.187-5.016-11.203-11.203-11.203h-30.255c-6.187,0-11.203,5.016-11.203,11.203v54.813
						C161.324,253.899,179.445,251.24,199.404,246.773z"/>
					
						<linearGradient id="SVGID_00000181076162915749822510000013248335839561394089_" gradientUnits="userSpaceOnUse" x1="253.9894" y1="410.3704" x2="373.7414" y2="149.799">
						<stop  offset="0" style="stop-color:#1277C5"/>
						<stop  offset="1" style="stop-color:#5ED376"/>
					</linearGradient>
					<path style="fill:url(#SVGID_00000181076162915749822510000013248335839561394089_);" d="M290.712,238.937v68.471h52.661
						v-94.576C328.236,221.756,310.402,230.625,290.712,238.937z"/>
				</g>
				
					<linearGradient id="SVGID_00000047029189704050952270000000338698314357620388_" gradientUnits="userSpaceOnUse" x1="142.6513" y1="359.2029" x2="262.4034" y2="98.6311">
					<stop  offset="0" style="stop-color:#1277C5"/>
					<stop  offset="1" style="stop-color:#5ED376"/>
				</linearGradient>
				<path style="fill:url(#SVGID_00000047029189704050952270000000338698314357620388_);" d="M189.539,282.078h9.865V269.11
					c-18.801,4.55-36.631,7.771-52.661,9.496v28.802h52.661v-12.624L189.539,282.078z"/>
				
					<linearGradient id="SVGID_00000153690592554221334960000001881679566111014035_" gradientUnits="userSpaceOnUse" x1="198.8315" y1="385.0217" x2="318.5835" y2="124.4501">
					<stop  offset="0" style="stop-color:#1277C5"/>
					<stop  offset="1" style="stop-color:#5ED376"/>
				</linearGradient>
				<path style="fill:url(#SVGID_00000153690592554221334960000001881679566111014035_);" d="M250.458,254.217
					c-10.908,3.707-21.742,7.055-32.368,10.021v17.84h10.781l-10.781,13.886v11.444h52.661v-60.49
					C264.132,249.428,257.365,251.87,250.458,254.217z"/>
				
					<linearGradient id="SVGID_00000011739790621084949100000002077263067387489718_" gradientUnits="userSpaceOnUse" x1="165.2027" y1="364.6503" x2="281.0732" y2="112.5247">
					<stop  offset="0" style="stop-color:#1277C5"/>
					<stop  offset="1" style="stop-color:#5ED376"/>
				</linearGradient>
				<path style="fill:url(#SVGID_00000011739790621084949100000002077263067387489718_);" d="M261.489,176.193l9.262-11.93v-2.961
					c0-5.765-4.674-10.439-10.439-10.439h-31.783c-5.766,0-10.439,4.674-10.439,10.439v80.898
					c12.493-3.306,25.453-7.213,38.524-11.656c4.836-1.644,9.543-3.314,14.137-5.001v-49.351H261.489z"/>
				
					<linearGradient id="SVGID_00000015341469533389785710000003595753162642192823_" gradientUnits="userSpaceOnUse" x1="210.8112" y1="383.3159" x2="326.4407" y2="131.7147">
					<stop  offset="0" style="stop-color:#1277C5"/>
					<stop  offset="1" style="stop-color:#5ED376"/>
				</linearGradient>
				<path style="fill:url(#SVGID_00000015341469533389785710000003595753162642192823_);" d="M290.712,115.226v47.946l10.109,13.021
					h-10.109v41.601c20.998-8.622,38.742-17.465,52.661-25.737v-76.83c0-7.432-6.025-13.457-13.456-13.457h-25.748
					C296.736,101.77,290.712,107.795,290.712,115.226z"/>
				
					<linearGradient id="SVGID_00000063592545856392734770000002597515381479454105_" gradientUnits="userSpaceOnUse" x1="233.9622" y1="306.1827" x2="239.876" y2="153.905">
					<stop  offset="0" style="stop-color:#1277C5"/>
					<stop  offset="1" style="stop-color:#5ED376"/>
				</linearGradient>
				<path style="fill:url(#SVGID_00000063592545856392734770000002597515381479454105_);" d="M395.073,146.812l-29.03,21
					l15.005-0.017c-11.201,18.786-60.367,46.504-122.748,67.708c-74.843,25.44-140.342,31.863-146.297,14.346
					c-2.848-8.378,8.453-20.715,29.196-34.09v-14.786c-41.234,22.124-65.934,44.929-60.926,59.662
					c7.724,22.724,83.164,17.632,168.5-11.374c69.97-23.783,124.854-56.256,138.096-79.707l8.249,10.691L395.073,146.812z"/>
			</g>
		</g>
		<g>
			<text transform="matrix(1 0 0 1 134.248 367.2793)" style="fill:#382A57; font-family:'Montserrat-Bold'; font-size:55.6694px;">Cityrise</text>
			
				<text transform="matrix(1 0 0 1 261.4207 385.6334)" style="fill:#382A57; font-family:'Montserrat-Regular'; font-size:10.3787px; letter-spacing:1;">ACCOUNTING</text>
		</g>
		
			<radialGradient id="SVGID_00000149354664811273946390000010014168106844321711_" cx="250" cy="-852.8755" r="159.586" gradientTransform="matrix(1 0 0 0.0884 0 484.3838)" gradientUnits="userSpaceOnUse">
			<stop  offset="0" style="stop-color:#C4C4C4"/>
			<stop  offset="0.2061" style="stop-color:#D9D9D9"/>
			<stop  offset="0.4779" style="stop-color:#EEEEEE"/>
			<stop  offset="0.7443" style="stop-color:#FBFBFB"/>
			<stop  offset="0.9972" style="stop-color:#FFFFFF"/>
		</radialGradient>
		
			<ellipse style="fill:url(#SVGID_00000149354664811273946390000010014168106844321711_);" cx="250" cy="408.99" rx="159.588" ry="14.107"/>
	</g>
</g>
</svg>
